<svg xmlns="http://www.w3.org/2000/svg" version="1.1" xmlnsXlink="http://www.w3.org/1999/xlink" xmlnsSvgjs="http://svgjs.com/svgjs" width="100%" height="100%" >
            <pattern
        id="pattern-icons"
        x="0"
        y="126"
        patternUnits="userSpaceOnUse"
        width="150"
        height="143"
        viewBox="0 0 600 450"
      >
        <def>
          <g id="avocado" transform="scale(.25)" fill="rgba(166, 207, 147, .4)">
            <path d="m92.257812 165.957031c1.101563.390625 2.226563.574219 3.332032.574219 4.117187 0 7.976562-2.566406 9.425781-6.667969l.117187-.332031c1.832032-5.210938-.902343-10.917969-6.113281-12.75-5.214843-1.832031-10.917969.902344-12.75 6.113281l-.109375.300781c-1.839844 5.207032.890625 10.921876 6.097656 12.761719zm0 0" />
            <path d="m163.609375 465.773438c1.101563.390624 2.226563.574218 3.332031.574218 4.121094 0 7.976563-2.5625 9.429688-6.667968l.117187-.332032c1.832031-5.210937-.90625-10.917968-6.113281-12.75-5.214844-1.832031-10.917969.902344-12.753906 6.113282l-.105469.300781c-1.839844 5.207031.886719 10.921875 6.09375 12.761719zm0 0" />
            <path d="m498.636719 366.621094c-5.488281-.496094-10.359375 3.566406-10.851563 9.066406l-.039062.433594c-.523438 5.496094 3.503906 10.378906 9.003906 10.902344.320312.03125.644531.046874.960938.046874 5.09375 0 9.445312-3.875 9.941406-9.050781l.050781-.546875c.496094-5.5-3.566406-10.359375-9.066406-10.851562zm0 0" />
            <path d="m494.746094 396.722656c-5.257813-1.695312-10.890625 1.191406-12.585938 6.445313-13.410156 41.566406-46.566406 73.121093-88.691406 84.410156-33.011719 8.84375-67.484375 4.304687-97.074219-12.78125-8.347656-4.816406-16.019531-10.472656-22.9375-16.84375-.300781-.320313-.613281-.621094-.945312-.894531-9.25-8.699219-17.105469-18.699219-23.363281-29.730469-.097657-.175781-.191407-.355469-.300782-.527344-5.179687-9.238281-9.246094-19.183593-12.058594-29.679687-8.84375-33.007813-4.304687-67.480469 12.78125-97.074219 10.105469-17.503906 23.890626-32.058594 40.296876-42.863281.390624-.210938.765624-.457032 1.132812-.730469 11.03125-7.09375 23.214844-12.515625 36.246094-16.007813 24.152344-6.472656 43.625-23.367187 62.460937-39.703124 30.992188-26.890626 51.4375-42.535157 79.964844-26.066407 28.191406 16.277344 25.128906 39.710938 17.292969 79.734375-4.65625 23.792969-9.933594 50.753906-3.039063 76.492188 1.007813 3.769531 1.855469 7.609375 2.515625 11.410156.941406 5.441406 6.117188 9.085938 11.558594 8.148438 5.4375-.945313 9.085938-6.121094 8.144531-11.558594-.761719-4.390625-1.734375-8.824219-2.902343-13.175782-5.695313-21.265624-1.097657-44.753906 3.351562-67.472656 3.742188-19.113281 7.277344-37.167968 5.125-54.21875-2.574219-20.445312-13.058594-35.714844-32.046875-46.679687-19.164063-11.0625-37.992187-12.386719-57.5625-4.035157-16.246094 6.929688-31.121094 19.835938-45.507813 32.316407-17.121093 14.851562-34.824218 30.210937-54.527343 35.492187-12.402344 3.324219-24.140625 8.160156-35.019531 14.339844-1.625-1.773438-3.273438-3.507812-4.949219-5.183594-17.695313-17.695312-26.46875-43.28125-34.949219-68.023437-7.066406-20.609375-13.742188-40.078125-25.292969-55.308594-8.5625-11.285156-18.957031-18.957031-31.429687-23.140625-.269532-3.984375-.671875-8.027344-1.171875-12.070312 10.269531 3.3125 21.414062 5.039062 32.640625 5.039062 6.710937 0 13.453125-.613281 20.054687-1.871094 25.132813-4.773437 45.734375-18.351562 55.109375-36.316406 2.464844-4.722656.796875-10.542969-3.792968-13.242188-19.703126-11.601562-46.074219-15.746093-70.542969-11.097656-16.15625 3.070313-30.4375 9.785156-41.070313 18.957032-1.886718-6.996094-3.800781-12.914063-5.449218-17.050782-5.082032-12.75-19.441407-19.324218-32.023438-14.660156-11.203125 4.15625-19.382812 17.433594-12.402344 37.71875 2.210938 6.4375 5.714844 26.039062 7.074219 45.234375-22.671875 8.335937-34.40625 26.863281-41.679687 41.71875-2.429688 4.960937-.378907 10.949219 4.582031 13.378906 4.960937 2.429688 10.949219.375 13.378906-4.582031 9.386719-19.175781 20.222656-29.574219 35.535156-33.316406.507813-.070313.996094-.191406 1.476563-.335938 4.09375-.871094 8.5-1.292968 13.277344-1.292968 37.355468 0 48.203124 26.113281 62.808593 68.722656 8.792969 25.644531 18.757813 54.710937 39.726563 75.679687.734375.734375 1.464844 1.488281 2.191406 2.246094-15.167969 11.664063-28.046875 26.308594-37.902344 43.378906-19.757812 34.214844-25.003906 74.078125-14.777344 112.246094 2.65625 9.921875 6.289063 19.417969 10.796876 28.390625-8.304688 7.703125-22.34375 13.980469-33.183594 14.320312-5.523438.171876-9.855469 4.789063-9.683594 10.308594.171875 5.414063 4.613281 9.683594 9.988281 9.683594.105469 0 .214844 0 .320313-.003906 14.339844-.449219 31.019531-7.289063 42.882812-16.855469 3.820313 5.539063 8.027344 10.804687 12.582032 15.769531-56.898438 41.753906-137.625 36.253906-188.289063-14.414062-56.539063-56.539063-56.535156-148.53125 0-205.070313 15.3125-15.3125 24.277344-35.546875 30.378906-51.46875 1.976563-5.15625-.601562-10.9375-5.757812-12.914062-5.15625-1.976563-10.9375.601562-12.914063 5.757812-5.394531 14.070313-13.203125 31.839844-25.847656 44.484375-64.335938 64.335938-64.335938 169.015625 0 233.351563 29.582031 29.582031 68.882812 46.707031 110.667969 48.21875 2.023437.074219 4.039062.113281 6.058593.113281 36.476563 0 71.628907-11.960938 100.40625-34.097656 6.367188 5.261718 13.214844 10.03125 20.511719 14.246094 22.796875 13.160156 48.089844 19.878906 73.722657 19.878906 12.847656 0 25.785156-1.6875 38.523437-5.101563 48.714844-13.050781 87.050781-49.535156 102.550781-97.585937 1.695313-5.253906-1.191406-10.890625-6.445312-12.585938zm-268.285156-362.824218c15.898437-3.023438 32.660156-1.539063 46.742187 3.910156-7.984375 8.398437-20.378906 14.679687-34.980469 17.457031-15.902344 3.019531-32.660156 1.535156-46.738281-3.910156 7.980469-8.402344 20.378906-14.683594 34.976563-17.457031zm-67.867188 46.390624c-1.566406-19.417968-5.078125-39.367187-7.902344-47.574218-2.210937-6.421875-2.023437-11.546875.449219-12.464844 1.839844-.6875 5.210937.101562 6.488281 3.3125 2.433594 6.101562 6.144532 18.75 9.011719 33.371094.015625.082031.03125.164062.046875.246094 1.4375 7.355468 2.652344 15.195312 3.386719 22.960937-1.527344-.074219-3.074219-.117187-4.648438-.117187-2.355469 0-4.628906.097656-6.832031.265624zm0 0" />
            <path d="m416.839844 280.316406c-.6875-2.558594-2.363282-4.742187-4.65625-6.070312-2.296875-1.324219-5.03125-1.683594-7.589844-1l-62.296875 16.695312c-19.21875 5.148438-35.285156 17.476563-45.230469 34.707032-9.949218 17.230468-12.59375 37.304687-7.441406 56.527343 8.90625 33.242188 39.082031 55.21875 71.96875 55.21875 6.363281 0 12.832031-.820312 19.265625-2.546875 19.21875-5.148437 35.28125-17.476562 45.230469-34.707031 9.949218-17.230469 12.59375-37.308594 7.441406-56.527344zm-8.070313 108.824219c-7.277343 12.605469-19.027343 21.625-33.085937 25.390625-4.710938 1.261719-9.4375 1.863281-14.09375 1.863281-24.058594 0-46.136719-16.078125-52.652344-40.394531-3.765625-14.0625-1.832031-28.746094 5.445312-41.355469 7.277344-12.605469 19.027344-21.621093 33.089844-25.390625l52.636719-14.101562 14.105469 52.636718c3.769531 14.0625 1.835937 28.746094-5.445313 41.351563zm0 0" />
          </g>
          <g id="banana" transform="scale(.26)" fill="rgba(166, 207, 147, .4)">
            <path d="m439.177 106.185c-4.362-2.283-9.748-3.622-15.451-5.039-14.767-3.668-33.144-8.233-45.877-31.63a48.109 48.109 0 0 1 -1.991-4.383c-2.782-6.675-6.591-15.817-21.229-21.1a6.137 6.137 0 0 0 -.789-.219 5.977 5.977 0 0 0 -1.78-1.238 101.016 101.016 0 0 0 -12.06-4.337c-2.225-.627-6.966-1.96-11.5-1.678l-11.168-2.016a6 6 0 0 0 -5.382 1.736c-10.1 10.455-7.638 25.978-6.167 32.012l-4.946 10.114a6 6 0 0 0 -.107 5.042c3.079 7.033 10.063 27.935 5.877 39.288-.009.026-.02.051-.029.077a13.3 13.3 0 0 1 -1.417 2.809c-18.437 27.167-25.709 41.869-31.018 52.605-1.664 3.365-3.1 6.271-4.672 9.168-26.382 48.671-99.68 93-142.777 97.242-2.654.262-5.733.558-9.108.882-20.093 1.931-50.458 4.848-64.664 7.569a13.743 13.743 0 0 1 -1.779.192c-.067 0-.131.006-.2.009-2.593.119-6.313-.1-9.944-.315-9.024-.535-18.356-1.087-24.006 2.133a6.014 6.014 0 0 0 -1.759 1.522c-1.757 2.252-10.5 13.942-10.23 23.009.214 7.057 8.107 13.4 20.124 22.265 2.037 1.5 3.96 2.923 5.4 4.075 20.882 16.7 44.923 27.819 64.63 34a5.964 5.964 0 0 0 -.878 1.418c-1.138 2.706-6.673 16.655-3.982 25.529 2.2 7.266 13.072 11.841 28.186 17.511 1.612.6 3.1 1.162 4.366 1.662 29.2 11.486 59.716 15.461 85.267 15.461 19.749 0 36.532-2.376 47.422-5.5a257.387 257.387 0 0 0 55.018-22.513c-2.238 2.742-4.394 5.457-6.378 8.1-1.443 1.92-5.235 4.974-8.9 7.928-7.041 5.67-14.321 11.533-16.34 17.714a6.029 6.029 0 0 0 -.279 2.31c.213 2.847 1.593 17.383 7.89 23.911 2.92 3.028 7.687 4.035 14.206 4.035 4.423 0 9.652-.464 15.658-1.075 2.519-.256 4.9-.5 6.739-.613 38.418-2.4 71.449-16.883 100.98-44.263 38.878-36.047 84.8-100.8 82.8-204.586-.688-36.002-26.802-99.387-67.756-120.823zm-75.656-33.071c.137-1.738.284-3.628.29-5.651.326.741.644 1.5.97 2.287a58.171 58.171 0 0 0 2.528 5.5c9.263 17.022 21.056 25.727 32.506 30.843l-4.246 8.569-17.664 1.882c-7.717-8.8-14.164-20.484-14.616-38.458-.038-1.519.094-3.196.232-4.972zm-34.177-24.631c2.91-.169 10.184 1.816 16.715 4.572 6.426 7.306 6 12.8 5.5 19.12a59.252 59.252 0 0 0 -.266 6.215c.366 14.536 4.07 26.942 11.325 37.926 1.307 1.979 2.688 3.833 4.107 5.587l-8.353 6.227-8.923-2.9c-.234-6.939-2.376-14.921-6.429-23.873a125.018 125.018 0 0 0 -8.867-16.141l.03-11.309a6 6 0 0 0 -1.009-3.346c-.084-.124-8.03-12.497-3.83-22.078zm-11.483 18.5a36.449 36.449 0 0 1 -1.347-7.274 47.487 47.487 0 0 0 5.665 15.853l-.031 11.459a6.018 6.018 0 0 0 1.083 3.454c4.021 5.758 12.457 20.3 14.012 32.306l-17.729-2.8c1.978-14.636-4.019-31.933-6.709-38.727l4.757-9.726a6.005 6.005 0 0 0 .299-4.547zm-290.582 261.535c-4.351-3.342-9.323-7.44-10.276-9.55.138-3.31 3.839-9.686 6.822-13.792 3.372-1 11.45-.519 16.468-.222 1.32.078 2.593.152 3.827.215l-2.295 12.931zm10.747 8.089c-.215-.173-.455-.357-.684-.536l11.151-7.987c5.342 1.395 17.654 4.444 31.527 6.734a6 6 0 0 0 1.955-11.839c-11.339-1.872-21.793-4.324-27.794-5.831l2.218-12.5c14.156-2.555 43.035-5.33 62.334-7.184 3.386-.325 6.475-.622 9.138-.884 46.933-4.626 123.618-50.83 152.15-103.467 1.677-3.094 3.232-6.238 4.877-9.566 5.444-11 12.217-24.7 30.193-51.186.188-.278.356-.567.532-.852l20.147 3.184c-13.62 39.615-17.506 52.961-20.922 67.385-12.593 53.193-58.723 119.557-114.119 138.537-12.782 4.379-50.261 17.771-69.939 27.029-2.252 1.06-7.056 2.086-11.7 3.078-2.2.47-4.415.945-6.581 1.458-19.976-4.222-49.589-15.664-74.483-35.573zm84.521 76.538c-5.252-1.97-18.542-6.976-20.832-9.96-.8-3.36 1.212-10.864 3.1-15.81 1.768-1.136 5.162-2.187 8.782-3.1a5.971 5.971 0 0 0 1.159-.287c2.376-.575 4.784-1.09 6.838-1.529 3.254-.7 6.244-1.339 8.873-2.06l5.71 10.628zm129.693 11.386c-21.475 6.148-71.455 9.231-118.234-7.106l12.474-20.243a174.376 174.376 0 0 0 27.954-3.422 6 6 0 0 0 -2.36-11.766 165.333 165.333 0 0 1 -25.423 3.173l-4.982-9.275c20.065-8.789 51.511-20 62.948-23.923 27.184-9.314 54.794-30.358 77.746-59.255 21.149-26.627 37.245-58.654 44.162-87.87 3.36-14.189 7.226-27.412 21.058-67.6l10.034 3.258a6 6 0 0 0 5.44-.9l11.885-8.861c2.691 2.568 5.334 4.863 7.747 6.955 4.168 3.614 7.769 6.736 9.85 9.671 23.856 33.651 18.255 99.377 6.658 135.3-13.12 40.641-33.882 73.483-61.708 97.614-22.982 19.933-50.867 34.406-85.249 44.25zm57.445 40.53c-5.6.48-12.49.855-14.7-.106-2.123-2.543-3.668-9.753-4.218-14.8 1.826-3 8.13-8.08 12.043-11.232 2.047-1.648 3.957-3.193 5.669-4.678l8.809 11.048zm106.291-42.261c-10.04 9.308-40.518 37.551-92.963 41.039l6.707-17.443a6 6 0 0 0 -.909-5.894l-12.206-15.306c3.986-5.064 8.446-10.322 13.123-15.829 6.248-7.358 12.7-14.963 18.176-22.359 28.483-25.526 49.244-58.928 62.713-100.65 11.512-35.66 19.441-106.811-8.289-145.926-2.917-4.115-7.221-7.847-11.778-11.8-.462-.4-.931-.807-1.4-1.216l10.968-1.169a6 6 0 0 0 4.687-3.209c15.919 3.062 30.008 12.939 45.376 45.247a6 6 0 1 0 10.836-5.155c-10.84-22.789-24.553-44.469-50.735-51.127l.879-1.775c3.379 1 6.631 1.809 9.672 2.564 5.2 1.293 9.693 2.409 12.78 4.024 36.507 19.109 60.707 78.166 61.328 110.427 1.912 99.342-41.887 161.176-78.965 195.557z" />
          </g>
          <g id="coffee" transform="scale(.25)" fill="rgba(166, 207, 147, 0.4)">
            <path d="M502 206.5h-82v-21.167c0-5.523-4.478-10-10-10H194c-5.522 0-10 4.477-10 10s4.478 10 10 10h206v76.666c0 67.348-35.957 129.942-94.018 164H114.018C55.957 401.942 20 339.347 20 272v-76.666h67c5.522 0 10-4.477 10-10s-4.478-10-10-10H10c-5.522 0-10 4.477-10 10V272c0 37.8 10.16 74.864 29.382 107.183C42.345 400.98 59.165 420.228 78.862 436H10c-5.522 0-10 4.477-10 10 0 36.393 29.607 66 66 66h312c36.393 0 66-29.607 66-66 0-5.523-4.478-10-10-10h-92.862a211.208 211.208 0 0046.302-51.667h28.227C468.785 384.333 512 341.118 512 288v-71.5c0-5.523-4.477-10-10-10zM422.905 456c-4.578 20.572-22.974 36-44.905 36H66c-21.931 0-40.326-15.428-44.905-36H422.905zM420 272v-5.5h32V288c0 20.034-16.299 36.333-36.333 36.333h-2.271A210.508 210.508 0 00420 272zm72 16c0 42.09-34.243 76.333-76.333 76.333h-17.02a208.8 208.8 0 008.537-20h8.483C446.73 344.333 472 319.062 472 288v-31.5c0-5.523-4.478-10-10-10h-42v-20h72V288zM219.549 55.343l-5.203-6.533c-7.638-9.588-7.649-22.991-.027-32.593 3.434-4.326 2.71-10.616-1.616-14.049-4.327-3.435-10.616-2.71-14.05 1.616-13.442 16.936-13.422 40.575.049 57.487l5.203 6.533c9.981 12.53 9.996 30.045.036 42.594l-5.332 6.718c-3.434 4.326-2.71 10.616 1.616 14.049a9.96 9.96 0 006.21 2.168 9.984 9.984 0 007.84-3.784l5.332-6.718c15.78-19.882 15.757-47.634-.058-67.488zM274.978 77.827l-5.203-6.532c-7.638-9.589-7.649-22.992-.027-32.594 3.434-4.326 2.71-10.616-1.616-14.049-4.327-3.435-10.616-2.71-14.05 1.616-13.442 16.936-13.422 40.575.049 57.488l5.203 6.533c9.98 12.531 9.995 30.047.035 42.595l-5.331 6.717c-3.434 4.326-2.71 10.616 1.616 14.049a9.959 9.959 0 006.21 2.167 9.985 9.985 0 007.84-3.784l5.33-6.717c15.781-19.881 15.758-47.633-.056-67.489zM164.12 77.828l-5.203-6.532c-7.638-9.588-7.649-22.992-.028-32.594 3.434-4.326 2.71-10.616-1.616-14.05-4.327-3.434-10.616-2.708-14.05 1.616-13.441 16.936-13.421 40.576.05 57.488l5.203 6.533c9.98 12.531 9.995 30.047.036 42.594l-5.332 6.717c-3.434 4.326-2.711 10.616 1.615 14.05a9.958 9.958 0 006.21 2.168 9.982 9.982 0 007.839-3.783l5.333-6.718c15.78-19.881 15.757-47.633-.057-67.489z" />
            <path d="M150.28 178.26c-1.86-1.86-4.44-2.93-7.07-2.93s-5.21 1.07-7.07 2.93c-1.859 1.87-2.93 4.44-2.93 7.07s1.07 5.21 2.93 7.08c1.86 1.86 4.44 2.92 7.07 2.92s5.21-1.06 7.07-2.92a10.06 10.06 0 002.93-7.08c0-2.63-1.061-5.21-2.93-7.07zM362 262c-5.522 0-10 4.477-10 10 0 37.119-15.056 73.598-41.308 100.083-3.888 3.922-3.859 10.254.063 14.142a9.968 9.968 0 007.04 2.898 9.974 9.974 0 007.103-2.962C354.832 355.961 372 314.351 372 272c0-5.523-4.478-10-10-10zM293.885 399.225c-2.714-4.811-8.813-6.51-13.623-3.797l-.228.129c-4.811 2.714-6.51 8.813-3.797 13.623a9.996 9.996 0 0013.623 3.797l.228-.129c4.811-2.714 6.51-8.813 3.797-13.623z" />
          </g>
          <g id="bottle" transform="scale(.35)" fill="rgba(166, 207, 147, 0.4)">
            <path d="M188.275 157.013V8.533A8.536 8.536 0 00179.742 0h-51.2a8.536 8.536 0 00-8.533 8.533v148.48c-31.727 17.954-51.209 51.2-51.2 87.979v258.475A8.53 8.53 0 0077.342 512h153.6a8.53 8.53 0 008.533-8.533V245.001c.008-36.788-19.473-70.034-51.2-87.988zm34.133 337.92H85.875V244.992c-.017-32.06 17.801-60.885 46.481-75.221a8.542 8.542 0 004.719-7.637V17.067h34.133v145.067a8.532 8.532 0 004.719 7.637c28.681 14.327 46.49 43.153 46.481 75.221v249.941z" />
            <path d="M128.516 42.667h51.2v17.067h-51.2zM128.516 119.467h51.2v17.067h-51.2zM196.808 264.533h-85.333a8.53 8.53 0 00-8.533 8.533v153.6a8.53 8.53 0 008.533 8.533h85.333a8.53 8.53 0 008.533-8.533v-153.6a8.531 8.531 0 00-8.533-8.533zm-8.533 153.6h-68.267V281.6h68.267v136.533z" />
          </g>
          <g id="bread" transform="scale(.3)" fill="rgba(166, 207, 147, 0.4)">
            <path d="M481.854 290.398a7.5 7.5 0 00-10.571.868 7.5 7.5 0 00.869 10.571c16.233 13.768 24.826 29.177 24.848 44.562.015 10.328-3.688 19.059-11.321 26.691-12.763 12.764-36.512 22.271-70.587 28.26-30.589 5.375-68.898 7.984-117.152 7.888-74.499-.101-127.053-6.548-159.935-19.656 12.666-9.012 26.217-19.829 40.749-32.523 4.399 5.263 10.706 8.741 17.776 9.455 14.684 1.483 27.898-9.388 29.315-24.158.947-9.877.968-19.823.075-29.623 13.165-13.134 25.04-25.532 35.714-37.292 6.012 10.29 10.152 21.135 12.322 32.354 1.853 9.561 2.31 19.459 1.357 29.421-1.408 14.76 9.373 27.974 24.091 29.461 14.648 1.48 27.757-9.308 29.19-24.179 1.456-15.099.752-30.21-2.092-44.915-3-15.488-8.397-30.441-16.066-44.617 14.402.45 28.489 1.621 42.087 3.485 12.521 15.866 20.243 33.143 22.938 51.398 1.422 9.635 1.434 19.541.033 29.444-2.075 14.683 8.104 28.369 22.698 30.511 14.48 2.125 28.211-8.03 30.301-22.815 2.127-15.05 2.1-30.176-.082-44.957a153.997 153.997 0 00-6.303-26.304c7.46 2.864 14.571 5.999 21.265 9.405 3.635 1.85 8.183.455 10.085-3.283a7.5 7.5 0 00-3.283-10.086c-41.217-20.976-98.196-32.537-156.761-31.991a415.447 415.447 0 0011.28-15.298c21.967-31.336 32.646-57.016 32.646-78.506 0-14.776-5.14-27.395-15.276-37.503-21.208-21.151-57.113-24.484-101.098-9.387-42.189 14.48-87.391 44.362-127.278 84.14C35.9 238.851 0 306.522 0 357.824c0 21.275 6.477 38.98 18.732 51.201 10.165 10.137 22.665 15.204 37.403 15.203 15.602 0 33.712-5.678 54.213-17.031a255.73 255.73 0 0012.944-7.704c34.203 16.529 91.414 24.633 174.627 24.745 47.564.064 89.006-2.708 119.769-8.114 37.693-6.624 63.402-17.231 78.597-32.427 10.448-10.448 15.735-23.004 15.714-37.319-.028-19.921-10.452-39.278-30.145-55.98zm-78.204-22.984c4.824 11.251 8.172 22.941 9.924 34.808 1.972 13.358 1.995 27.041.068 40.667-.922 6.522-6.852 11.015-13.278 10.072-6.447-.945-10.94-7.033-10.017-13.568 1.602-11.327 1.586-22.677-.047-33.735-2.369-16.049-8.09-31.372-17.032-45.754 10.533 2.074 20.692 4.581 30.382 7.51zm-192.736 73.51c-.585 6.121-5.589 10.733-11.651 10.733-3.712 0-7.078-1.702-9.302-4.584a972.65 972.65 0 0021.606-20.255c.009 4.7-.202 9.411-.653 14.106zm100.862-40.492c2.57 13.291 3.206 26.959 1.888 40.632-.63 6.54-6.354 11.335-12.81 10.683-6.477-.654-11.235-6.534-10.608-13.104 1.089-11.392.563-22.729-1.562-33.699-2.79-14.423-8.38-28.262-16.628-41.222a645.642 645.642 0 009.079-10.653c3.929-.149 7.894-.258 11.88-.297 9.224 14.978 15.533 30.993 18.761 47.66zM189.648 127.258c11.358 4.544 21.982 10.439 31.602 17.584 10.839 8.052 20.53 17.71 28.804 28.708 3.698 4.916 3.111 11.695-1.365 15.769-5.142 4.679-13.363 3.835-17.579-1.77-6.877-9.142-14.914-17.156-23.887-23.82-13.017-9.668-27.889-16.457-44.37-20.304 8.913-5.977 17.87-11.383 26.795-16.167zM42.49 271.825c11.707 4.045 22.705 9.508 32.757 16.296 11.189 7.558 21.305 16.773 30.066 27.391 3.918 4.749 3.641 11.555-.648 15.831-4.917 4.903-13.162 4.427-17.623-.979-7.282-8.825-15.671-16.473-24.934-22.729-9.27-6.261-19.51-11.132-30.507-14.582 3.209-7 6.845-14.093 10.889-21.228zm60.592 122.25c-33.789 18.712-57.915 20.129-73.758 4.329C19.819 388.925 15 375.272 15 357.824c0-15.324 3.789-32.634 10.763-50.876 10.128 3.036 19.513 7.421 27.949 13.118 8.071 5.451 15.392 12.128 21.759 19.845 10.057 12.189 28.654 13.152 39.786 2.052 9.798-9.77 10.497-25.246 1.625-35.998-9.676-11.726-20.859-21.911-33.24-30.273-10.282-6.944-21.453-12.617-33.289-16.97 6.147-9.734 12.995-19.48 20.487-29.104 15.321.864 36.291 4.83 55.63 17.892 8.072 5.45 15.392 12.127 21.758 19.843 9.454 11.458 26.427 13.143 37.824 3.826 11.48-9.384 13.015-26.348 3.588-37.771a159.26 159.26 0 00-19.607-19.92 7.5 7.5 0 00-9.717 11.427 144.149 144.149 0 0117.753 18.039c4.191 5.08 3.514 12.501-1.513 16.611-5.041 4.122-12.559 3.332-16.759-1.76-7.282-8.825-15.67-16.472-24.933-22.727-15.192-10.261-33.162-16.864-52.61-19.438a408.098 408.098 0 0118.786-20.51c11.12 2.646 21.744 6.484 31.626 11.45 3.641 1.83 8.186.413 10.069-3.333a7.5 7.5 0 00-3.333-10.069c-8.224-4.133-16.907-7.543-25.921-10.23 10.497-9.857 21.298-18.994 32.252-27.301 20.066 2.368 37.735 9.124 52.545 20.123 7.819 5.808 14.832 12.805 20.845 20.797 9.501 12.629 28.064 14.4 39.66 3.847 10.237-9.316 11.637-24.741 3.257-35.881-9.138-12.147-19.853-22.823-31.847-31.732a154.062 154.062 0 00-23.054-14.141c6.287-2.803 12.53-5.275 18.699-7.393 16.632-5.709 31.774-8.547 44.976-8.547 17.186 0 31.08 4.812 40.661 14.367 7.313 7.293 10.868 16.086 10.868 26.882 0 18.05-10.069 41.566-29.929 69.896-9.926 14.159-22.393 30.697-35.218 44.044-44.688 46.505-98.817 105.542-154.114 136.166z" />
          </g>
          <g id="cart" transform="scale(.27)" fill="rgba(166, 207, 147, 0.4)">
            <path d="M444.274 93.36a14.332 14.332 0 00-11.145-6.123L155.942 75.289c-7.953-.348-14.599 5.792-14.939 13.708-.338 7.913 5.792 14.599 13.707 14.939l258.421 11.14L362.32 273.61H136.205L95.354 51.179a14.336 14.336 0 00-8.861-10.753L19.586 14.141c-7.374-2.887-15.695.735-18.591 8.1-2.891 7.369.73 15.695 8.1 18.591l59.491 23.371 41.572 226.335a14.341 14.341 0 0014.104 11.746h6.896l-15.747 43.74a11.927 11.927 0 001.468 10.916 11.947 11.947 0 009.772 5.078h11.045c-6.844 7.617-11.045 17.646-11.045 28.675 0 23.718 19.299 43.012 43.012 43.012s43.012-19.294 43.012-43.012c0-11.028-4.201-21.058-11.044-28.675h93.777c-6.847 7.617-11.047 17.646-11.047 28.675 0 23.718 19.294 43.012 43.012 43.012 23.719 0 43.012-19.294 43.012-43.012 0-11.028-4.2-21.058-11.042-28.675h13.432c6.6 0 11.948-5.349 11.948-11.947 0-6.6-5.349-11.948-11.948-11.948H143.651l12.902-35.843h216.221a14.332 14.332 0 0013.651-9.96l59.739-186.387a14.306 14.306 0 00-1.89-12.573zm-274.61 316.454c-10.543 0-19.117-8.573-19.117-19.116s8.574-19.117 19.117-19.117 19.116 8.574 19.116 19.117-8.573 19.116-19.116 19.116zm157.709 0c-10.543 0-19.116-8.573-19.116-19.116s8.573-19.117 19.116-19.117 19.116 8.574 19.116 19.117-8.573 19.116-19.116 19.116z" />
          </g>
          <g id="carrot" transform="scale(.65)" fill="rgba(166, 207, 147, 0.4)">
            <path d="M195.509 38.708c-11.433 0-19.469 1.586-25.145 3.668 5.811-8.343 8.774-21.293 8.774-38.681a3.695 3.695 0 10-7.39 0c0 39.484-16.064 40.949-16.497 40.978a3.68 3.68 0 00-1.45.331c-7.461-6.278-19.75-14.808-28.232-11.349-7.749 3.162-37.664 45.477-65.815 87.268l-.506-.253-1.955 3.909c-21.923 32.639-42.342 64.254-49.792 75.846a3.692 3.692 0 003.107 5.692c.685 0 1.371-.19 1.981-.576.404-.256 40.702-25.879 81.039-52.905 82.598-55.344 84.875-62.417 85.845-65.437 2.885-8.973-6.403-22.432-15.279-32.166.004-.01.012-.017.016-.027.036-.088 4.857-8.907 31.299-8.907a3.695 3.695 0 003.695-3.695 3.694 3.694 0 00-3.695-3.696zm-23.057 46.189c-1.444 3.479-13.883 13.396-32.047 26.479l-14.02-9.346-4.099 6.149 11.69 7.793c-7.964 5.649-16.782 11.764-26.118 18.134l-10.007-10.007-5.225 5.225 9.012 9.012a3359.051 3359.051 0 01-35.824 23.93l-8.608-8.608-5.225 5.225 7.53 7.53a4247.311 4247.311 0 01-36.599 23.765 4620.395 4620.395 0 0139.393-59.716l7.638 3.819 3.305-6.611-6.783-3.392c7.619-11.299 15.087-22.235 22.079-32.291l9.306 9.306 5.225-5.225-10.234-10.235c5.07-7.23 9.825-13.89 14.128-19.762l9.357 9.357 5.225-5.225-10.135-10.135c8.373-11.159 14.487-18.422 16.947-19.572.426-.175.949-.262 1.555-.262 4.243 0 12.687 4.298 22.646 13.522 13.779 12.769 21.404 26.43 19.888 31.141z" />
          </g>
          <g
            id="stationery"
            transform="scale(.15)"
            fill="rgba(166, 207, 147, 0.4)"
          >
            <path d="M241.38 30.53c-57.45 11.25-104.63 20.73-105.23 21.32-.79.79 64.56 343.12 67.32 352.79.59 1.97-2.37 4.34-9.87 7.5-14.81 6.52-24.87 15.79-32.57 30.4-5.92 10.86-6.71 14.21-6.91 27.24 0 13.23.79 16.19 6.71 27.24 7.7 14.02 15.6 21.91 29.81 29.02l9.87 4.94.4 205.91.59 205.71 4.94 9.87c6.12 12.64 19.94 26.46 32.57 32.57l9.87 4.94h471.84l9.87-4.94c12.64-6.12 26.46-19.94 32.57-32.57l4.94-9.87.59-205.71.4-205.91 9.87-4.94c14.21-7.11 22.11-15 29.81-29.02 5.73-10.86 6.52-14.21 6.52-27.24.2-12.44-.79-16.58-5.53-25.67-2.96-5.92-10.07-15-15.4-20.14l-9.87-9.48 39.68-129.9c21.91-71.47 39.68-130.89 39.68-131.88s-10.27-27.84-22.9-59.62l-22.9-57.84-5.33 3.55c-2.96 1.97-26.06 17.77-51.53 35.14-35.14 24.09-46.59 32.97-48.37 37.51-1.38 3.16-22.31 71.07-46.39 150.44L622.21 406.6h-11.06V217.86l7.9-39.29c4.34-21.52 7.9-40.67 7.9-42.64 0-3.36-92-115.29-94.76-115.29-2.76 0-94.76 111.94-94.76 115.29 0 1.97 3.55 21.12 7.9 42.64l7.9 39.29V406.6h-24.88l-38.3-198.41C358.85 46.92 351.15 9.8 348.58 10c-1.58 0-49.95 9.28-107.2 20.53zM362.4 228.35c18.36 95.75 33.56 175.11 33.56 176.3 0 2.37-159.12 2.96-160.5.4-.59-.79-1.58-5.53-2.37-10.46l-1.38-9.08 20.73-3.55c11.45-1.97 21.91-4.15 23.1-4.94 2.96-1.78-1.78-27.64-5.13-29.02-1.38-.39-11.45.99-22.51 3.16-11.06 2.37-20.73 3.75-21.52 3.16-1.78-.99-6.91-28.43-5.53-29.81.4-.59 17.77-4.15 38.1-8.1 20.53-3.95 37.51-7.11 37.71-7.3.39-.2-5.33-29.42-5.92-30.01-.2-.2-17.57 2.76-38.69 6.91-25.47 5.13-38.3 6.71-38.69 5.33-2.17-6.91-5.13-25.47-4.34-27.64.59-1.38 9.67-3.95 20.73-6.12 11.06-1.97 20.93-4.15 22.11-4.94 1.38-.79 1.19-5.13-.79-14.61-1.38-7.3-3.16-13.62-3.75-14.21-.59-.59-10.86.79-23.1 3.16-12.24 2.37-22.31 3.95-22.7 3.55-.79-.99-4.94-23.89-4.94-27.44 0-2.76 6.32-4.54 38.1-10.66l38.1-7.5-2.96-15.4c-2.37-12.44-3.55-15.4-5.92-14.81-1.78.59-17.37 3.75-34.75 7.11-17.37 3.16-33.36 6.32-35.73 6.91-3.55.79-4.34-.59-6.91-14.81-2.76-14.22-2.76-15.79 0-16.58 1.78-.4 11.65-2.37 21.91-4.15 10.27-1.97 19.35-3.95 20.14-4.74 1.18-.99-3.36-27.64-5.13-29.22-.4-.39-9.87 1.18-21.12 3.36-11.25 2.17-21.52 3.95-22.7 3.95-3.16 0-8.88-29.61-5.92-30.8 1.18-.39 35.93-7.3 77.19-15.4 74.23-14.21 75.02-14.41 76.4-10.27.77 2.37 16.56 82.52 35.12 178.27zM554.89 95.09c12.04 14.41 25.67 30.8 30.4 36.72l8.88 10.46-5.73 29.61-5.72 29.42h-34.75v-47.38h-31.58v47.38h-34.74l-5.72-29.42-5.73-29.61 8.88-10.46c35.34-42.84 52.12-62.78 53.11-62.78.59 0 10.85 11.65 22.7 26.06zm257.63 10.46c4.54 11.45 8.09 21.32 7.7 21.72-1.38 1.19-55.28-15.4-54.69-16.98.79-2.37 33.76-25.27 36.32-25.47 1.39 0 6.13 9.28 10.67 20.73zm-56.66 35.74c6.12 1.97 11.25 4.34 11.25 5.53s-17.77 59.82-39.29 130.5l-39.09 128.32-17.18.59c-13.03.39-16.78 0-15.99-1.97.39-1.38 18.75-61.2 40.47-132.86 21.91-71.66 40.08-131.48 40.47-132.86.59-1.38 2.57-2.17 4.34-1.58 1.99.38 8.7 2.35 15.02 4.33zm71.27 24.67c-.2 1.58-16.58 56.27-36.52 121.81l-36.13 118.85H738.1c-9.08 0-16.39-.59-16.39-1.38 0-1.78 75.22-247.96 76.2-249.74 1.58-2.37 29.42 7.5 29.22 10.46zm-247.57 82.72v15.79H484.8v-31.58h94.76v15.79zm0 102.66v55.28H484.8V296.06h94.76v55.28zm190.32 90.82c10.46 5.33 14.02 12.44 14.02 27.64 0 15.6-3.55 22.31-15 28.03-6.33 3.35-23.9 3.55-284.1 3.55-260.2 0-277.77-.2-284.09-3.55-11.45-5.73-15-12.44-15-28.03 0-15.6 3.55-22.31 15-28.23 6.32-3.16 22.9-3.36 285.08-2.96 242.83.58 279.15.98 284.09 3.55zM737.5 734.73c0 188.34-.2 202.36-3.55 208.67-1.78 3.75-5.92 8.69-8.88 10.86-5.53 4.14-6.12 4.14-240.26 4.14s-234.73 0-240.26-4.14c-2.96-2.17-7.11-7.11-8.88-10.86-3.36-6.32-3.55-20.34-3.55-208.67V532.97h505.4v201.76z" />
            <path d="M263.69 714.6v102.66h442.22V611.94H263.69V714.6zm410.64 0v71.07H295.28V643.53h379.04v71.07z" />
          </g>
        </def>

        <use x="0" y="0" xlinkHref="#avocado"></use>
        <use x="50" y="385" xlinkHref="#banana"></use>
        <use x="50" y="200" xlinkHref="#coffee"></use>
        <use x="450" y="300" xlinkHref="#bottle"></use>
        <use x="200" y="50" xlinkHref="#bread"></use>
        <use x="400" y="0" xlinkHref="#cart"></use>
        <use x="330" y="180" xlinkHref="#carrot"></use>
        <use x="250" y="350" xlinkHref="#stationery"></use>
      </pattern>

      <rect
        x="0"
        y="0"
        width="100%"
        height="100%"
        fill="url(#pattern-icons)"
      ></rect>
    </svg>