<svg width="352" height="118" viewBox="0 0 352 118" fill="none" xmlns="http://www.w3.org/2000/svg">
  <path d="M172.938 3.903l.425-.065v-.429h0v-.024l.005-.092a4.129 4.129 0 01.328-1.388c.163-.372.399-.72.735-.974.329-.25.784-.431 1.433-.431.653 0 1.111.176 1.441.415.335.244.569.576.731.929a3.786 3.786 0 01.324 1.318l.005.087v.021h0v.001h0v.442l.439.053c4.464.547 13.983 2.673 20.681 10.922 4.53 5.577 8.031 13.082 11.014 22.295 2.982 9.21 5.437 20.094 7.892 32.41 4.846 24.313-13.313 47.652-42.026 47.652s-46.872-23.34-42.026-47.652c2.455-12.316 4.909-23.2 7.892-32.41 2.983-9.212 6.483-16.718 11.013-22.295 6.237-7.68 14.92-10.054 19.694-10.785z" fill="#A6CF93" stroke="#A6CF93" stroke-linecap="round"/>
  <path d="M173.242 11.048l.01-.001.01-.002h.004l.01-.003.044-.009a22.172 22.172 0 01.748-.128c.471-.071 1.045-.139 1.506-.139.479 0 1.108.04 1.625.082.257.02.483.041.645.057l.19.019.05.005.012.001c3.699.48 11.582 2.343 17.132 9.566 3.76 4.894 6.669 11.484 9.15 19.58 2.479 8.093 4.52 17.657 6.561 28.481 4.029 21.364-11.069 41.816-34.864 41.816-23.796 0-38.894-20.452-34.865-41.816 2.041-10.824 4.082-20.389 6.561-28.481 2.481-8.096 5.39-14.686 9.15-19.58 5.171-6.73 12.366-8.807 16.321-9.448z" fill="#FAFAF9" stroke="#FAFAF9" stroke-linecap="round"/>
  <path d="M164.07 32.851s-.075 3.593 4.181 3.593c4.257 0 3.801-3.593 3.801-3.593M188.072 32.851s.075 3.593-4.181 3.593c-4.257 0-3.801-3.593-3.801-3.593M172.073 42.09s1.05 1.54 3.501 1.54c2.451 0 3.501-1.54 3.501-1.54" stroke="#A6CF93" stroke-width="2.5" stroke-linecap="round"/>
  <path d="M153.751 87.868a23.923 23.923 0 01-1.692-8.883c.021-9.478 5.692-18.446 15.022-22.215 12.294-4.968 26.287.972 31.255 13.267l-8.348 3.372c-3.105-7.684-11.851-11.396-19.535-8.291-5.85 2.363-9.398 7.998-9.388 13.944a15.044 15.044 0 001.016 5.387l.081.203a14.956 14.956 0 008.049 8.191c7.629 3.238 16.438-.32 19.677-7.95l8.287 3.519c-5.181 12.205-19.276 17.9-31.482 12.719a23.938 23.938 0 01-12.942-13.263zM245.7 102.994c-2.63 0-5.005-.318-7.126-.955-2.121-.678-3.818-1.802-5.09-3.372-1.273-1.612-1.909-3.838-1.909-6.68 0-2.97.933-5.345 2.8-7.126 1.866-1.824 4.772-2.736 8.716-2.736 1.654 0 3.245.212 4.772.636 1.569.424 2.906.933 4.008 1.527v-2.036c0-1.951-.636-3.35-1.908-4.199-1.23-.89-2.969-1.336-5.218-1.336-1.908 0-3.817.34-5.726 1.018-1.908.636-3.414 1.42-4.517 2.354v-8.398c1.018-.68 2.693-1.315 5.026-1.91 2.376-.593 4.984-.89 7.826-.89 1.23 0 2.63.148 4.199.445 1.612.255 3.16.785 4.645 1.591 1.484.763 2.693 1.888 3.627 3.372.975 1.485 1.463 3.436 1.463 5.854l-.064 15.206c-.042 2.757-1.421 4.729-4.135 5.917-2.715 1.145-6.511 1.718-11.389 1.718zm-4.708-10.816c0 1.272.509 2.29 1.527 3.054a6.088 6.088 0 003.499 1.081c2.163 0 3.669-.148 4.517-.445.891-.297 1.336-.89 1.336-1.782v-4.962c-1.527-.51-3.16-.764-4.899-.764-3.987 0-5.98 1.273-5.98 3.818zM287.701 102.039V73.217c.593-.466 1.654-1.039 3.181-1.717 1.527-.679 3.266-1.273 5.217-1.782a22.345 22.345 0 015.981-.827c1.993 0 3.563.148 4.708.445 1.145.297 2.015.68 2.609 1.146v6.935c-.976-.212-2.248-.36-3.818-.446a58.08 58.08 0 00-4.708-.063c-1.527 0-2.757.085-3.69.254v24.877h-9.48zM346.083 103.312c-3.733 0-6.511-.87-8.335-2.609-1.824-1.781-2.736-4.284-2.736-7.507V77.099h-4.708v-7.254h4.708v-8.843h9.925v8.843H352V77.1h-7.063v14.888c0 1.103.234 1.93.7 2.481.467.51 1.252.764 2.354.764A6.516 6.516 0 00352 93.895v8.081a9.26 9.26 0 01-2.927 1.018 14.646 14.646 0 01-2.99.318z" fill="#DC9600"/>
  <path d="M14.125 102.994c-2.63 0-5.005-.318-7.126-.955-2.121-.678-3.818-1.802-5.09-3.372C.636 97.055 0 94.83 0 91.987c0-2.97.933-5.345 2.8-7.126 1.866-1.824 4.771-2.736 8.716-2.736 1.654 0 3.245.212 4.772.636 1.57.424 2.905.933 4.008 1.527v-2.036c0-1.951-.636-3.35-1.909-4.2-1.23-.89-2.969-1.335-5.217-1.335-1.909 0-3.817.34-5.726 1.018-1.909.636-3.414 1.42-4.517 2.354V71.69c1.018-.68 2.693-1.315 5.026-1.91 2.375-.593 4.984-.89 7.826-.89 1.23 0 2.63.148 4.2.445 1.61.255 3.16.785 4.644 1.591 1.484.763 2.693 1.887 3.626 3.372.976 1.485 1.464 3.436 1.464 5.853l-.064 15.207c-.042 2.757-1.42 4.729-4.136 5.917-2.714 1.145-6.51 1.718-11.388 1.718zM9.416 92.178c0 1.272.51 2.29 1.527 3.054a6.092 6.092 0 003.5 1.081c2.163 0 3.669-.148 4.517-.445.89-.297 1.336-.89 1.336-1.782v-4.962c-1.527-.51-3.16-.764-4.899-.764-3.987 0-5.98 1.273-5.98 3.818zM57.016 102.039L43.59 69.845h10.243l8.526 21.76 7.571-21.76h9.99L66.495 102.04h-9.48zM108.232 102.994c-10.901 0-16.33-5.727-16.288-17.179 0-6.065 1.378-10.413 4.135-13.043 2.757-2.672 6.808-4.008 12.153-4.008 5.387 0 9.48 1.378 12.279 4.135 2.8 2.715 4.199 7.02 4.199 12.916 0 5.642-1.421 9.925-4.262 12.852-2.842 2.885-6.914 4.327-12.216 4.327zm0-7.572c2.333 0 4.093-.805 5.28-2.417 1.188-1.654 1.782-4.051 1.782-7.19 0-3.563-.615-6.044-1.845-7.444-1.188-1.4-2.927-2.1-5.217-2.1-2.418 0-4.178.722-5.281 2.164-1.103 1.442-1.654 3.902-1.654 7.38 0 3.224.551 5.642 1.654 7.253 1.145 1.57 2.905 2.354 5.281 2.354z" fill="#FFC344"/>
</svg>